<svg xmlns="http://www.w3.org/2000/svg" viewBox="0 0 96 96" width="96" height="96" shape-rendering="crispEdges" role="img" aria-label="Superman mentor pixel avatar">
<title>Superman mentor pixel avatar</title>
<rect x="38" y="0" width="12" height="1" fill="#111111"/>
<rect x="50" y="0" width="1" height="1" fill="#ffffff"/>
<rect x="36" y="1" width="2" height="1" fill="#ffffff"/>
<rect x="34" y="2" width="1" height="1" fill="#ffffff"/>
<rect x="35" y="2" width="3" height="1" fill="#111111"/>
<rect x="39" y="2" width="11" height="1" fill="#111111"/>
<rect x="50" y="2" width="1" height="1" fill="#ffffff"/>
<rect x="52" y="2" width="2" height="1" fill="#111111"/>
<rect x="34" y="3" width="1" height="1" fill="#ffffff"/>
<rect x="35" y="3" width="3" height="1" fill="#111111"/>
<rect x="39" y="3" width="11" height="1" fill="#111111"/>
<rect x="50" y="3" width="1" height="1" fill="#ffffff"/>
<rect x="52" y="3" width="2" height="1" fill="#111111"/>
<rect x="34" y="4" width="1" height="1" fill="#111111"/>
<rect x="38" y="4" width="14" height="1" fill="#111111"/>
<rect x="54" y="4" width="1" height="1" fill="#111111"/>
<rect x="31" y="5" width="2" height="1" fill="#111111"/>
<rect x="35" y="5" width="19" height="1" fill="#111111"/>
<rect x="59" y="5" width="1" height="1" fill="#ffffff"/>
<rect x="35" y="6" width="24" height="1" fill="#111111"/>
<rect x="61" y="6" width="3" height="1" fill="#ffffff"/>
<rect x="33" y="7" width="27" height="1" fill="#111111"/>
<rect x="62" y="7" width="3" height="1" fill="#ffffff"/>
<rect x="33" y="8" width="27" height="1" fill="#111111"/>
<rect x="62" y="8" width="3" height="1" fill="#ffffff"/>
<rect x="31" y="9" width="31" height="1" fill="#111111"/>
<rect x="65" y="9" width="1" height="1" fill="#111111"/>
<rect x="29" y="10" width="35" height="1" fill="#111111"/>
<rect x="28" y="11" width="37" height="1" fill="#111111"/>
<rect x="67" y="11" width="2" height="1" fill="#111111"/>
<rect x="28" y="12" width="39" height="1" fill="#111111"/>
<rect x="67" y="12" width="2" height="1" fill="#ffffff"/>
<rect x="69" y="12" width="1" height="1" fill="#111111"/>
<rect x="28" y="13" width="39" height="1" fill="#111111"/>
<rect x="67" y="13" width="2" height="1" fill="#ffffff"/>
<rect x="69" y="13" width="1" height="1" fill="#111111"/>
<rect x="23" y="14" width="1" height="1" fill="#111111"/>
<rect x="26" y="14" width="41" height="1" fill="#111111"/>
<rect x="69" y="14" width="1" height="1" fill="#ffffff"/>
<rect x="21" y="15" width="2" height="1" fill="#111111"/>
<rect x="24" y="15" width="1" height="1" fill="#ffffff"/>
<rect x="25" y="15" width="39" height="1" fill="#111111"/>
<rect x="66" y="15" width="3" height="1" fill="#111111"/>
<rect x="21" y="16" width="2" height="1" fill="#111111"/>
<rect x="24" y="16" width="11" height="1" fill="#111111"/>
<rect x="36" y="16" width="4" height="1" fill="#111111"/>
<rect x="46" y="16" width="4" height="1" fill="#111111"/>
<rect x="52" y="16" width="2" height="1" fill="#ffffff"/>
<rect x="54" y="16" width="3" height="1" fill="#111111"/>
<rect x="59" y="16" width="2" height="1" fill="#111111"/>
<rect x="67" y="16" width="3" height="1" fill="#111111"/>
<rect x="20" y="17" width="3" height="1" fill="#ffffff"/>
<rect x="24" y="17" width="6" height="1" fill="#111111"/>
<rect x="39" y="17" width="1" height="1" fill="#111111"/>
<rect x="45" y="17" width="5" height="1" fill="#111111"/>
<rect x="55" y="17" width="4" height="1" fill="#111111"/>
<rect x="67" y="17" width="4" height="1" fill="#111111"/>
<rect x="72" y="17" width="2" height="1" fill="#ffffff"/>
<rect x="20" y="18" width="3" height="1" fill="#ffffff"/>
<rect x="24" y="18" width="6" height="1" fill="#111111"/>
<rect x="39" y="18" width="1" height="1" fill="#111111"/>
<rect x="45" y="18" width="5" height="1" fill="#111111"/>
<rect x="55" y="18" width="4" height="1" fill="#111111"/>
<rect x="67" y="18" width="4" height="1" fill="#111111"/>
<rect x="72" y="18" width="2" height="1" fill="#ffffff"/>
<rect x="23" y="19" width="7" height="1" fill="#111111"/>
<rect x="44" y="19" width="5" height="1" fill="#111111"/>
<rect x="56" y="19" width="3" height="1" fill="#111111"/>
<rect x="59" y="19" width="1" height="1" fill="#ffffff"/>
<rect x="64" y="19" width="1" height="1" fill="#111111"/>
<rect x="70" y="19" width="1" height="1" fill="#111111"/>
<rect x="72" y="19" width="2" height="1" fill="#ffffff"/>
<rect x="23" y="20" width="6" height="1" fill="#111111"/>
<rect x="31" y="20" width="4" height="1" fill="#111111"/>
<rect x="39" y="20" width="10" height="1" fill="#111111"/>
<rect x="56" y="20" width="6" height="1" fill="#111111"/>
<rect x="64" y="20" width="1" height="1" fill="#ffffff"/>
<rect x="65" y="20" width="2" height="1" fill="#111111"/>
<rect x="70" y="20" width="1" height="1" fill="#111111"/>
<rect x="72" y="20" width="2" height="1" fill="#ffffff"/>
<rect x="19" y="21" width="1" height="1" fill="#111111"/>
<rect x="23" y="21" width="5" height="1" fill="#111111"/>
<rect x="30" y="21" width="4" height="1" fill="#111111"/>
<rect x="36" y="21" width="12" height="1" fill="#111111"/>
<rect x="57" y="21" width="2" height="1" fill="#ffffff"/>
<rect x="59" y="21" width="13" height="1" fill="#111111"/>
<rect x="72" y="21" width="3" height="1" fill="#ffffff"/>
<rect x="21" y="22" width="22" height="1" fill="#111111"/>
<rect x="45" y="22" width="3" height="1" fill="#111111"/>
<rect x="57" y="22" width="2" height="1" fill="#ffffff"/>
<rect x="59" y="22" width="13" height="1" fill="#111111"/>
<rect x="74" y="22" width="1" height="1" fill="#ffffff"/>
<rect x="21" y="23" width="22" height="1" fill="#111111"/>
<rect x="45" y="23" width="3" height="1" fill="#111111"/>
<rect x="57" y="23" width="2" height="1" fill="#ffffff"/>
<rect x="59" y="23" width="13" height="1" fill="#111111"/>
<rect x="74" y="23" width="1" height="1" fill="#ffffff"/>
<rect x="21" y="24" width="20" height="1" fill="#111111"/>
<rect x="44" y="24" width="2" height="1" fill="#111111"/>
<rect x="57" y="24" width="2" height="1" fill="#ffffff"/>
<rect x="59" y="24" width="13" height="1" fill="#111111"/>
<rect x="74" y="24" width="1" height="1" fill="#ffffff"/>
<rect x="21" y="25" width="20" height="1" fill="#111111"/>
<rect x="44" y="25" width="2" height="1" fill="#111111"/>
<rect x="59" y="25" width="13" height="1" fill="#111111"/>
<rect x="74" y="25" width="1" height="1" fill="#ffffff"/>
<rect x="19" y="26" width="21" height="1" fill="#111111"/>
<rect x="43" y="26" width="1" height="1" fill="#ffffff"/>
<rect x="44" y="26" width="2" height="1" fill="#111111"/>
<rect x="59" y="26" width="15" height="1" fill="#111111"/>
<rect x="19" y="27" width="21" height="1" fill="#111111"/>
<rect x="40" y="27" width="1" height="1" fill="#ffffff"/>
<rect x="43" y="27" width="3" height="1" fill="#111111"/>
<rect x="54" y="27" width="20" height="1" fill="#111111"/>
<rect x="19" y="28" width="21" height="1" fill="#111111"/>
<rect x="40" y="28" width="1" height="1" fill="#ffffff"/>
<rect x="43" y="28" width="3" height="1" fill="#111111"/>
<rect x="54" y="28" width="20" height="1" fill="#111111"/>
<rect x="19" y="29" width="19" height="1" fill="#111111"/>
<rect x="40" y="29" width="5" height="1" fill="#111111"/>
<rect x="51" y="29" width="8" height="1" fill="#111111"/>
<rect x="60" y="29" width="1" height="1" fill="#ffffff"/>
<rect x="61" y="29" width="13" height="1" fill="#111111"/>
<rect x="19" y="30" width="19" height="1" fill="#111111"/>
<rect x="40" y="30" width="5" height="1" fill="#111111"/>
<rect x="50" y="30" width="5" height="1" fill="#111111"/>
<rect x="60" y="30" width="1" height="1" fill="#ffffff"/>
<rect x="61" y="30" width="13" height="1" fill="#111111"/>
<rect x="19" y="31" width="1" height="1" fill="#ffffff"/>
<rect x="20" y="31" width="16" height="1" fill="#111111"/>
<rect x="36" y="31" width="2" height="1" fill="#ffffff"/>
<rect x="43" y="31" width="1" height="1" fill="#ffffff"/>
<rect x="44" y="31" width="1" height="1" fill="#111111"/>
<rect x="60" y="31" width="1" height="1" fill="#ffffff"/>
<rect x="61" y="31" width="13" height="1" fill="#111111"/>
<rect x="18" y="32" width="2" height="1" fill="#ffffff"/>
<rect x="20" y="32" width="16" height="1" fill="#111111"/>
<rect x="41" y="32" width="2" height="1" fill="#111111"/>
<rect x="44" y="32" width="1" height="1" fill="#ffffff"/>
<rect x="62" y="32" width="13" height="1" fill="#111111"/>
<rect x="76" y="32" width="1" height="1" fill="#ffffff"/>
<rect x="18" y="33" width="2" height="1" fill="#ffffff"/>
<rect x="20" y="33" width="16" height="1" fill="#111111"/>
<rect x="41" y="33" width="2" height="1" fill="#111111"/>
<rect x="44" y="33" width="1" height="1" fill="#ffffff"/>
<rect x="62" y="33" width="13" height="1" fill="#111111"/>
<rect x="76" y="33" width="1" height="1" fill="#ffffff"/>
<rect x="18" y="34" width="17" height="1" fill="#111111"/>
<rect x="35" y="34" width="6" height="1" fill="#ffffff"/>
<rect x="41" y="34" width="4" height="1" fill="#111111"/>
<rect x="50" y="34" width="25" height="1" fill="#111111"/>
<rect x="76" y="34" width="1" height="1" fill="#ffffff"/>
<rect x="18" y="35" width="27" height="1" fill="#111111"/>
<rect x="50" y="35" width="25" height="1" fill="#111111"/>
<rect x="76" y="35" width="1" height="1" fill="#ffffff"/>
<rect x="18" y="36" width="2" height="1" fill="#111111"/>
<rect x="21" y="36" width="54" height="1" fill="#111111"/>
<rect x="76" y="36" width="1" height="1" fill="#ffffff"/>
<rect x="18" y="37" width="2" height="1" fill="#111111"/>
<rect x="21" y="37" width="54" height="1" fill="#111111"/>
<rect x="76" y="37" width="1" height="1" fill="#ffffff"/>
<rect x="18" y="38" width="2" height="1" fill="#111111"/>
<rect x="21" y="38" width="54" height="1" fill="#111111"/>
<rect x="76" y="38" width="1" height="1" fill="#ffffff"/>
<rect x="18" y="39" width="2" height="1" fill="#111111"/>
<rect x="21" y="39" width="54" height="1" fill="#111111"/>
<rect x="76" y="39" width="1" height="1" fill="#ffffff"/>
<rect x="18" y="40" width="2" height="1" fill="#111111"/>
<rect x="21" y="40" width="25" height="1" fill="#111111"/>
<rect x="49" y="40" width="20" height="1" fill="#111111"/>
<rect x="70" y="40" width="5" height="1" fill="#111111"/>
<rect x="76" y="40" width="1" height="1" fill="#ffffff"/>
<rect x="18" y="41" width="1" height="1" fill="#ffffff"/>
<rect x="21" y="41" width="25" height="1" fill="#111111"/>
<rect x="49" y="41" width="20" height="1" fill="#111111"/>
<rect x="71" y="41" width="4" height="1" fill="#111111"/>
<rect x="18" y="42" width="1" height="1" fill="#ffffff"/>
<rect x="19" y="42" width="27" height="1" fill="#111111"/>
<rect x="49" y="42" width="21" height="1" fill="#111111"/>
<rect x="71" y="42" width="3" height="1" fill="#111111"/>
<rect x="74" y="42" width="1" height="1" fill="#ffffff"/>
<rect x="18" y="43" width="1" height="1" fill="#ffffff"/>
<rect x="19" y="43" width="27" height="1" fill="#111111"/>
<rect x="49" y="43" width="21" height="1" fill="#111111"/>
<rect x="71" y="43" width="3" height="1" fill="#111111"/>
<rect x="74" y="43" width="1" height="1" fill="#ffffff"/>
<rect x="18" y="44" width="1" height="1" fill="#ffffff"/>
<rect x="19" y="44" width="2" height="1" fill="#111111"/>
<rect x="23" y="44" width="1" height="1" fill="#111111"/>
<rect x="25" y="44" width="18" height="1" fill="#111111"/>
<rect x="44" y="44" width="2" height="1" fill="#111111"/>
<rect x="50" y="44" width="20" height="1" fill="#111111"/>
<rect x="71" y="44" width="3" height="1" fill="#111111"/>
<rect x="18" y="45" width="2" height="1" fill="#ffffff"/>
<rect x="20" y="45" width="1" height="1" fill="#111111"/>
<rect x="23" y="45" width="1" height="1" fill="#111111"/>
<rect x="25" y="45" width="16" height="1" fill="#111111"/>
<rect x="43" y="45" width="1" height="1" fill="#ffffff"/>
<rect x="44" y="45" width="2" height="1" fill="#111111"/>
<rect x="51" y="45" width="19" height="1" fill="#111111"/>
<rect x="71" y="45" width="3" height="1" fill="#111111"/>
<rect x="18" y="46" width="2" height="1" fill="#ffffff"/>
<rect x="20" y="46" width="1" height="1" fill="#111111"/>
<rect x="23" y="46" width="1" height="1" fill="#111111"/>
<rect x="26" y="46" width="4" height="1" fill="#111111"/>
<rect x="43" y="46" width="1" height="1" fill="#ffffff"/>
<rect x="44" y="46" width="2" height="1" fill="#111111"/>
<rect x="65" y="46" width="5" height="1" fill="#111111"/>
<rect x="71" y="46" width="3" height="1" fill="#111111"/>
<rect x="18" y="47" width="2" height="1" fill="#ffffff"/>
<rect x="20" y="47" width="1" height="1" fill="#111111"/>
<rect x="23" y="47" width="1" height="1" fill="#111111"/>
<rect x="26" y="47" width="4" height="1" fill="#111111"/>
<rect x="43" y="47" width="1" height="1" fill="#ffffff"/>
<rect x="44" y="47" width="2" height="1" fill="#111111"/>
<rect x="65" y="47" width="2" height="1" fill="#111111"/>
<rect x="71" y="47" width="3" height="1" fill="#111111"/>
<rect x="18" y="48" width="2" height="1" fill="#ffffff"/>
<rect x="20" y="48" width="1" height="1" fill="#111111"/>
<rect x="23" y="48" width="1" height="1" fill="#111111"/>
<rect x="26" y="48" width="4" height="1" fill="#111111"/>
<rect x="43" y="48" width="1" height="1" fill="#ffffff"/>
<rect x="44" y="48" width="2" height="1" fill="#111111"/>
<rect x="65" y="48" width="2" height="1" fill="#111111"/>
<rect x="71" y="48" width="3" height="1" fill="#111111"/>
<rect x="18" y="49" width="2" height="1" fill="#ffffff"/>
<rect x="20" y="49" width="1" height="1" fill="#111111"/>
<rect x="23" y="49" width="1" height="1" fill="#111111"/>
<rect x="28" y="49" width="2" height="1" fill="#111111"/>
<rect x="65" y="49" width="2" height="1" fill="#111111"/>
<rect x="71" y="49" width="3" height="1" fill="#111111"/>
<rect x="21" y="50" width="2" height="1" fill="#111111"/>
<rect x="24" y="50" width="1" height="1" fill="#111111"/>
<rect x="28" y="50" width="2" height="1" fill="#111111"/>
<rect x="65" y="50" width="1" height="1" fill="#111111"/>
<rect x="70" y="50" width="1" height="1" fill="#111111"/>
<rect x="71" y="50" width="3" height="1" fill="#ffffff"/>
<rect x="21" y="51" width="2" height="1" fill="#111111"/>
<rect x="24" y="51" width="1" height="1" fill="#111111"/>
<rect x="28" y="51" width="1" height="1" fill="#ffffff"/>
<rect x="29" y="51" width="1" height="1" fill="#111111"/>
<rect x="65" y="51" width="1" height="1" fill="#111111"/>
<rect x="69" y="51" width="2" height="1" fill="#111111"/>
<rect x="72" y="51" width="2" height="1" fill="#ffffff"/>
<rect x="23" y="52" width="1" height="1" fill="#111111"/>
<rect x="25" y="52" width="1" height="1" fill="#111111"/>
<rect x="28" y="52" width="1" height="1" fill="#ffffff"/>
<rect x="29" y="52" width="1" height="1" fill="#111111"/>
<rect x="65" y="52" width="1" height="1" fill="#111111"/>
<rect x="69" y="52" width="1" height="1" fill="#111111"/>
<rect x="71" y="52" width="1" height="1" fill="#111111"/>
<rect x="23" y="53" width="1" height="1" fill="#111111"/>
<rect x="25" y="53" width="1" height="1" fill="#111111"/>
<rect x="28" y="53" width="1" height="1" fill="#ffffff"/>
<rect x="29" y="53" width="1" height="1" fill="#111111"/>
<rect x="65" y="53" width="1" height="1" fill="#111111"/>
<rect x="69" y="53" width="1" height="1" fill="#111111"/>
<rect x="71" y="53" width="1" height="1" fill="#111111"/>
<rect x="26" y="54" width="4" height="1" fill="#111111"/>
<rect x="65" y="54" width="4" height="1" fill="#111111"/>
<rect x="70" y="54" width="1" height="1" fill="#ffffff"/>
<rect x="26" y="55" width="5" height="1" fill="#111111"/>
<rect x="31" y="55" width="2" height="1" fill="#ffffff"/>
<rect x="43" y="55" width="7" height="1" fill="#ffffff"/>
<rect x="50" y="55" width="2" height="1" fill="#111111"/>
<rect x="62" y="55" width="2" height="1" fill="#ffffff"/>
<rect x="64" y="55" width="5" height="1" fill="#111111"/>
<rect x="70" y="55" width="1" height="1" fill="#ffffff"/>
<rect x="26" y="56" width="5" height="1" fill="#111111"/>
<rect x="31" y="56" width="2" height="1" fill="#ffffff"/>
<rect x="43" y="56" width="9" height="1" fill="#111111"/>
<rect x="62" y="56" width="2" height="1" fill="#ffffff"/>
<rect x="64" y="56" width="5" height="1" fill="#111111"/>
<rect x="70" y="56" width="1" height="1" fill="#ffffff"/>
<rect x="23" y="57" width="2" height="1" fill="#111111"/>
<rect x="26" y="57" width="8" height="1" fill="#111111"/>
<rect x="61" y="57" width="6" height="1" fill="#111111"/>
<rect x="67" y="57" width="3" height="1" fill="#ffffff"/>
<rect x="71" y="57" width="1" height="1" fill="#ffffff"/>
<rect x="23" y="58" width="2" height="1" fill="#111111"/>
<rect x="26" y="58" width="8" height="1" fill="#111111"/>
<rect x="61" y="58" width="6" height="1" fill="#111111"/>
<rect x="67" y="58" width="3" height="1" fill="#ffffff"/>
<rect x="71" y="58" width="1" height="1" fill="#ffffff"/>
<rect x="23" y="59" width="1" height="1" fill="#ffffff"/>
<rect x="25" y="59" width="1" height="1" fill="#111111"/>
<rect x="28" y="59" width="1" height="1" fill="#ffffff"/>
<rect x="29" y="59" width="6" height="1" fill="#111111"/>
<rect x="45" y="59" width="5" height="1" fill="#111111"/>
<rect x="60" y="59" width="6" height="1" fill="#111111"/>
<rect x="69" y="59" width="1" height="1" fill="#111111"/>
<rect x="71" y="59" width="1" height="1" fill="#111111"/>
<rect x="72" y="59" width="2" height="1" fill="#ffffff"/>
<rect x="24" y="60" width="2" height="1" fill="#111111"/>
<rect x="29" y="60" width="6" height="1" fill="#111111"/>
<rect x="60" y="60" width="6" height="1" fill="#111111"/>
<rect x="69" y="60" width="2" height="1" fill="#111111"/>
<rect x="21" y="61" width="4" height="1" fill="#111111"/>
<rect x="29" y="61" width="7" height="1" fill="#111111"/>
<rect x="36" y="61" width="2" height="1" fill="#ffffff"/>
<rect x="59" y="61" width="7" height="1" fill="#111111"/>
<rect x="24" y="62" width="1" height="1" fill="#111111"/>
<rect x="26" y="62" width="13" height="1" fill="#111111"/>
<rect x="56" y="62" width="13" height="1" fill="#111111"/>
<rect x="24" y="63" width="1" height="1" fill="#111111"/>
<rect x="26" y="63" width="13" height="1" fill="#111111"/>
<rect x="56" y="63" width="13" height="1" fill="#111111"/>
<rect x="21" y="64" width="2" height="1" fill="#ffffff"/>
<rect x="26" y="64" width="14" height="1" fill="#111111"/>
<rect x="40" y="64" width="1" height="1" fill="#ffffff"/>
<rect x="55" y="64" width="1" height="1" fill="#ffffff"/>
<rect x="56" y="64" width="13" height="1" fill="#111111"/>
<rect x="21" y="65" width="2" height="1" fill="#ffffff"/>
<rect x="25" y="65" width="1" height="1" fill="#ffffff"/>
<rect x="26" y="65" width="15" height="1" fill="#111111"/>
<rect x="54" y="65" width="1" height="1" fill="#ffffff"/>
<rect x="55" y="65" width="10" height="1" fill="#111111"/>
<rect x="66" y="65" width="4" height="1" fill="#111111"/>
<rect x="71" y="65" width="1" height="1" fill="#ffffff"/>
<rect x="25" y="66" width="5" height="1" fill="#111111"/>
<rect x="31" y="66" width="12" height="1" fill="#111111"/>
<rect x="52" y="66" width="18" height="1" fill="#111111"/>
<rect x="71" y="66" width="1" height="1" fill="#ffffff"/>
<rect x="25" y="67" width="3" height="1" fill="#111111"/>
<rect x="30" y="67" width="29" height="1" fill="#111111"/>
<rect x="60" y="67" width="6" height="1" fill="#111111"/>
<rect x="67" y="67" width="4" height="1" fill="#111111"/>
<rect x="74" y="67" width="1" height="1" fill="#ffffff"/>
<rect x="25" y="68" width="3" height="1" fill="#111111"/>
<rect x="30" y="68" width="29" height="1" fill="#111111"/>
<rect x="60" y="68" width="6" height="1" fill="#111111"/>
<rect x="67" y="68" width="4" height="1" fill="#111111"/>
<rect x="74" y="68" width="1" height="1" fill="#ffffff"/>
<rect x="24" y="69" width="2" height="1" fill="#111111"/>
<rect x="30" y="69" width="27" height="1" fill="#111111"/>
<rect x="60" y="69" width="6" height="1" fill="#111111"/>
<rect x="69" y="69" width="3" height="1" fill="#111111"/>
<rect x="74" y="69" width="1" height="1" fill="#ffffff"/>
<rect x="21" y="70" width="4" height="1" fill="#111111"/>
<rect x="26" y="70" width="2" height="1" fill="#ffffff"/>
<rect x="28" y="70" width="7" height="1" fill="#111111"/>
<rect x="36" y="70" width="19" height="1" fill="#111111"/>
<rect x="60" y="70" width="9" height="1" fill="#111111"/>
<rect x="70" y="70" width="2" height="1" fill="#ffffff"/>
<rect x="24" y="71" width="6" height="1" fill="#111111"/>
<rect x="31" y="71" width="4" height="1" fill="#111111"/>
<rect x="38" y="71" width="17" height="1" fill="#111111"/>
<rect x="60" y="71" width="5" height="1" fill="#111111"/>
<rect x="66" y="71" width="6" height="1" fill="#111111"/>
<rect x="30" y="72" width="5" height="1" fill="#111111"/>
<rect x="40" y="72" width="12" height="1" fill="#111111"/>
<rect x="60" y="72" width="2" height="1" fill="#111111"/>
<rect x="62" y="72" width="2" height="1" fill="#ffffff"/>
<rect x="65" y="72" width="1" height="1" fill="#111111"/>
<rect x="30" y="73" width="5" height="1" fill="#111111"/>
<rect x="40" y="73" width="12" height="1" fill="#111111"/>
<rect x="60" y="73" width="2" height="1" fill="#111111"/>
<rect x="62" y="73" width="2" height="1" fill="#ffffff"/>
<rect x="65" y="73" width="1" height="1" fill="#111111"/>
<rect x="28" y="74" width="6" height="1" fill="#111111"/>
<rect x="40" y="74" width="11" height="1" fill="#111111"/>
<rect x="60" y="74" width="6" height="1" fill="#111111"/>
<rect x="30" y="75" width="4" height="1" fill="#111111"/>
<rect x="41" y="75" width="7" height="1" fill="#111111"/>
<rect x="61" y="75" width="3" height="1" fill="#111111"/>
<rect x="28" y="76" width="7" height="1" fill="#111111"/>
<rect x="60" y="76" width="4" height="1" fill="#111111"/>
<rect x="69" y="76" width="1" height="1" fill="#ffffff"/>
<rect x="28" y="77" width="10" height="1" fill="#111111"/>
<rect x="57" y="77" width="9" height="1" fill="#111111"/>
<rect x="28" y="78" width="10" height="1" fill="#111111"/>
<rect x="57" y="78" width="9" height="1" fill="#111111"/>
<rect x="25" y="79" width="4" height="1" fill="#111111"/>
<rect x="31" y="79" width="9" height="1" fill="#111111"/>
<rect x="55" y="79" width="9" height="1" fill="#111111"/>
<rect x="66" y="79" width="3" height="1" fill="#111111"/>
<rect x="72" y="79" width="2" height="1" fill="#ffffff"/>
<rect x="24" y="80" width="5" height="1" fill="#111111"/>
<rect x="33" y="80" width="28" height="1" fill="#111111"/>
<rect x="69" y="80" width="2" height="1" fill="#111111"/>
<rect x="14" y="81" width="4" height="1" fill="#111111"/>
<rect x="21" y="81" width="10" height="1" fill="#111111"/>
<rect x="33" y="81" width="28" height="1" fill="#111111"/>
<rect x="64" y="81" width="2" height="1" fill="#111111"/>
<rect x="70" y="81" width="2" height="1" fill="#111111"/>
<rect x="72" y="81" width="3" height="1" fill="#ffffff"/>
<rect x="14" y="82" width="1" height="1" fill="#111111"/>
<rect x="19" y="82" width="14" height="1" fill="#111111"/>
<rect x="35" y="82" width="25" height="1" fill="#111111"/>
<rect x="61" y="82" width="6" height="1" fill="#111111"/>
<rect x="72" y="82" width="3" height="1" fill="#111111"/>
<rect x="80" y="82" width="1" height="1" fill="#111111"/>
<rect x="14" y="83" width="1" height="1" fill="#111111"/>
<rect x="19" y="83" width="14" height="1" fill="#111111"/>
<rect x="35" y="83" width="25" height="1" fill="#111111"/>
<rect x="61" y="83" width="6" height="1" fill="#111111"/>
<rect x="72" y="83" width="3" height="1" fill="#111111"/>
<rect x="80" y="83" width="1" height="1" fill="#111111"/>
<rect x="16" y="84" width="19" height="1" fill="#111111"/>
<rect x="38" y="84" width="18" height="1" fill="#111111"/>
<rect x="56" y="84" width="1" height="1" fill="#ffffff"/>
<rect x="60" y="84" width="10" height="1" fill="#111111"/>
<rect x="75" y="84" width="2" height="1" fill="#111111"/>
<rect x="8" y="85" width="2" height="1" fill="#111111"/>
<rect x="14" y="85" width="21" height="1" fill="#111111"/>
<rect x="40" y="85" width="15" height="1" fill="#111111"/>
<rect x="55" y="85" width="1" height="1" fill="#ffffff"/>
<rect x="57" y="85" width="13" height="1" fill="#111111"/>
<rect x="76" y="85" width="4" height="1" fill="#111111"/>
<rect x="84" y="85" width="1" height="1" fill="#111111"/>
<rect x="85" y="85" width="1" height="1" fill="#ffffff"/>
<rect x="4" y="86" width="4" height="1" fill="#ffffff"/>
<rect x="11" y="86" width="27" height="1" fill="#111111"/>
<rect x="43" y="86" width="9" height="1" fill="#ffffff"/>
<rect x="56" y="86" width="16" height="1" fill="#111111"/>
<rect x="79" y="86" width="3" height="1" fill="#111111"/>
<rect x="86" y="86" width="3" height="1" fill="#ffffff"/>
<rect x="4" y="87" width="1" height="1" fill="#111111"/>
<rect x="10" y="87" width="1" height="1" fill="#ffffff"/>
<rect x="11" y="87" width="29" height="1" fill="#111111"/>
<rect x="54" y="87" width="21" height="1" fill="#111111"/>
<rect x="82" y="87" width="3" height="1" fill="#111111"/>
<rect x="89" y="87" width="1" height="1" fill="#ffffff"/>
<rect x="4" y="88" width="1" height="1" fill="#111111"/>
<rect x="10" y="88" width="1" height="1" fill="#ffffff"/>
<rect x="11" y="88" width="29" height="1" fill="#111111"/>
<rect x="54" y="88" width="21" height="1" fill="#111111"/>
<rect x="82" y="88" width="3" height="1" fill="#111111"/>
<rect x="89" y="88" width="1" height="1" fill="#ffffff"/>
<rect x="1" y="89" width="2" height="1" fill="#ffffff"/>
<rect x="8" y="89" width="35" height="1" fill="#111111"/>
<rect x="54" y="89" width="23" height="1" fill="#111111"/>
<rect x="84" y="89" width="3" height="1" fill="#111111"/>
<rect x="91" y="89" width="1" height="1" fill="#111111"/>
<rect x="4" y="90" width="1" height="1" fill="#ffffff"/>
<rect x="5" y="90" width="74" height="1" fill="#111111"/>
<rect x="87" y="90" width="3" height="1" fill="#111111"/>
<rect x="95" y="90" width="1" height="1" fill="#111111"/>
<rect x="0" y="91" width="1" height="1" fill="#ffffff"/>
<rect x="1" y="91" width="95" height="1" fill="#111111"/>
<rect x="0" y="92" width="94" height="1" fill="#111111"/>
<rect x="94" y="92" width="1" height="1" fill="#ffffff"/>
<rect x="0" y="93" width="94" height="1" fill="#111111"/>
<rect x="94" y="93" width="1" height="1" fill="#ffffff"/>
<rect x="1" y="94" width="91" height="1" fill="#111111"/>
<rect x="50" y="95" width="1" height="1" fill="#ffffff"/>
</svg>